<?xml version="1.0" encoding="utf-8"?>
<!-- Generator: Adobe Illustrator 25.2.0, SVG Export Plug-In . SVG Version: 6.00 Build 0)  -->
<svg version="1.1" id="Layer_1" xmlns="http://www.w3.org/2000/svg" xmlns:xlink="http://www.w3.org/1999/xlink" x="0px" y="0px"
	 viewBox="0 0 1024 1024" style="enable-background:new 0 0 1024 1024;" xml:space="preserve">
<style type="text/css">
	.st0{fill:#FF5004;}
	.st1{fill:#209615;}
</style>
<g>
	<path class="st0" d="M256,556.8v26.7c-6.8,1.4-13.4,2.5-19.9,3.2c-6.5,0.7-14.2,1.1-23.1,1.1c-11.4,0-21.1-1-28.9-3
		c-7.8-2-14.1-5.5-18.8-10.5c-4.7-5-8.1-12.1-10.3-21.3c-2.1-9.2-3.2-20.9-3.2-35.3c0-13.8,1.1-25.2,3.2-34.1
		c2.1-8.9,5.5-15.8,10.3-20.6c4.7-4.9,11-8.3,18.8-10.2c7.8-1.9,17.5-2.9,28.9-2.9c8.9,0,16.6,0.3,23.1,1c6.5,0.6,13.1,1.7,19.9,3.3
		v27.5l-0.6,0.4c-5.9-1.4-11.6-2.4-17.1-3.1c-5.5-0.6-12.3-1-20.3-1c-6.5,0-11.8,0.5-16,1.4c-4.2,0.9-7.4,2.7-9.8,5.4
		c-2.4,2.7-4.1,6.6-5,11.8c-0.9,5.2-1.4,12.2-1.4,20.9c0,9.2,0.5,16.5,1.4,22.1c0.9,5.6,2.6,9.8,5,12.6c2.4,2.8,5.7,4.7,9.8,5.7
		c4.2,1,9.5,1.5,16,1.5c7.9,0,14.6-0.2,20.2-0.7c5.6-0.5,11.2-1.4,16.8-2.9L256,556.8z"/>
	<path class="st0" d="M303.6,585.8h-33.9V443.6h33.9V512l0.3-5.4c0.5-7.5,4-14.5,10.1-18.9c0.4-0.3,0.7-0.5,1.1-0.8
		c5.3-3.5,12.2-5.2,20.8-5.2c8.2,0,14.9,1.3,20.2,4c5.3,2.7,9.2,7.4,11.9,14.1c2.6,6.7,3.9,16.1,3.9,28.2v57.8h-33.9l-0.2-51.2
		c0-7.9-1.2-13.5-3.6-16.9c-2.4-3.4-6.9-5.1-13.5-5.1c-5.9,0-10.2,1.6-12.9,4.7c-2.7,3.1-4.1,8.3-4.2,15.7V585.8z"/>
	<path class="st0" d="M480.7,495.2C469.9,484.4,456.6,479,441,479c-15.7,0-28.9,5.4-39.7,16.2c-10.8,10.8-16.2,24-16.2,39.7
		c0,15.7,5.4,28.9,16.2,39.7c10.8,10.8,24,16.2,39.7,16.2c15.7,0,28.9-5.4,39.8-16.2c10.9-10.8,16.3-24,16.3-39.7
		C497,519.2,491.6,506,480.7,495.2z M461.5,555.8c-5.5,5.5-12.3,8.3-20.5,8.3s-15-2.8-20.4-8.3c-5.4-5.5-8.2-12.5-8.2-20.9
		c0-8.5,2.7-15.4,8.2-20.9c2-2.1,4.3-3.8,6.7-5.1c0,0,0,0,0,0c17.9-10.6,45.5,1.9,45.5,1.9s-10,0-11.3,3.1c2.1,1.2-1.8-1.8,0,0
		c5.5,5.5,8.2,12.5,8.2,20.9C469.7,543.3,467,550.3,461.5,555.8z"/>
	<path d="M602.2,574.5c-10.9,10.8-24.1,16.2-39.8,16.2c-15.7,0-28.9-5.4-39.7-16.2c-10.8-10.8-16.2-24-16.2-39.7
		c0-15.7,5.4-28.9,16.2-39.7c10.8-10.8,24-16.2,39.7-16.2c15.7,0,28.9,5.4,39.8,16.2c10.9,10.8,16.3,24,16.3,39.7
		C618.5,550.5,613.1,563.7,602.2,574.5z M542,555.8c5.4,5.5,12.2,8.3,20.4,8.3c8.2,0,15-2.8,20.5-8.3s8.3-12.5,8.3-20.9
		c0-8.5-2.8-15.4-8.3-20.9c-5.5-5.5-12.3-8.3-20.5-8.3c-8.2,0-15,2.8-20.4,8.3c-5.4,5.5-8.1,12.5-8.1,20.9
		C533.8,543.3,536.6,550.3,542,555.8z"/>
	<path d="M723.7,574.5c-10.9,10.8-24.1,16.2-39.8,16.2c-15.7,0-28.9-5.4-39.7-16.2c-10.8-10.8-16.2-24-16.2-39.7
		c0-15.7,5.4-28.9,16.2-39.7s24-16.2,39.7-16.2c15.7,0,28.9,5.4,39.8,16.2c10.9,10.8,16.3,24,16.3,39.7
		C739.9,550.5,734.5,563.7,723.7,574.5z M663.5,555.8c5.4,5.5,12.2,8.3,20.4,8.3c8.2,0,15-2.8,20.5-8.3s8.3-12.5,8.3-20.9
		c0-8.5-2.8-15.4-8.3-20.9c-5.5-5.5-12.3-8.3-20.5-8.3c-8.2,0-15,2.8-20.4,8.3c-5.4,5.5-8.1,12.5-8.1,20.9
		C655.3,543.3,658,550.3,663.5,555.8z"/>
	<path class="st0" d="M798.8,510.3h-5.2h-40.8V483h90.4v24.3l-45.7,50.4v0.4h49.1v27.3h-97.1v-22.2l31.1-33.1
		c9-9.5,20.9-15.7,33.8-17.5l13.9-1.9L798.8,510.3z"/>
	<path class="st0" d="M891.7,444.5c0.4,5.1,0.6,9.3,0.6,12.7c0,2,0,4-0.1,6c-0.1,2-0.2,4.3-0.5,6.9c-3,0.6-5.9,1-8.7,1.3
		c-2.8,0.3-5.6,0.4-8.5,0.4c-2.7,0-5.4-0.1-8.1-0.4c-2.8-0.3-5.5-0.7-8.4-1.3c-0.3-2.4-0.5-4.6-0.6-6.7c-0.1-2-0.2-4.1-0.2-6
		c0-1.8,0.1-3.8,0.2-5.9c0.1-2.1,0.4-4.4,0.6-7c2.8-0.7,5.7-1.2,8.6-1.4c2.9-0.2,5.7-0.3,8.6-0.3c2.7,0,5.4,0.1,8.1,0.3
		C886.1,443.3,888.8,443.8,891.7,444.5z M891.7,585.8h-33.9V482.8h33.9V585.8z"/>
</g>
<path class="st0" d="M620.4,509.2c0.3,1.8,2.7,2,3.4,0.3c3.1-8.7,7.5-23.7,3.7-29.8c-5.5-8.9-25-14.4-15.4-20.6
	c9.2-5.9,16.3-8.4,16.8-8.6c0,0,0,0,0,0c-0.4-0.4-5.1-4.4-2.8-10.5c0,0,0,0,0,0c0.8,1.2,18,28.2,40,34.3c1.3,0.4,2.2-1.3,1.2-2.2
	c-6.8-6.6-21.8-22.4-23.1-32.2c-1.7-12.7-9.6-13.7-13-13c-3.4,0.7-54,12.5-49.3,30.1c3.8,14.3,18.8,16.4,28.4,27.1
	C616.4,491,619.2,502.1,620.4,509.2z"/>
<circle class="st1" cx="660.8" cy="426.1" r="15.2"/>
<g>
	<g>
		<rect x="542.7" y="474.2" class="st1" width="3" height="0.4"/>
	</g>
	<g>
		<rect x="542.7" y="416.4" class="st1" width="3" height="0.2"/>
	</g>
	<g>
		<g>
			<path class="st1" d="M544.2,441.5l-11.4-4.6h0l-3.8-1.5l-18.2-7.4l-1.1,0.5v34l34.1,13.6l1-0.4l0.9-0.4v-33.2L544.2,441.5z
				 M542.7,472.4l-30-11.9V432l30,12.1V472.4z"/>
		</g>
	</g>
	<g>
		<g>
			<polygon class="st1" points="577,430.1 577,462.3 576.2,462.6 574,462.6 574,430.1 			"/>
		</g>
	</g>
	<g>
		
			<rect x="542.4" y="474.3" transform="matrix(0.3677 -0.9299 0.9299 0.3677 -97.3517 805.8446)" class="st1" width="3" height="0.5"/>
	</g>
	<g>
		
			<rect x="543.3" y="473" transform="matrix(0.9273 -0.3743 0.3743 0.9273 -138.1031 237.9383)" class="st1" width="0.5" height="3"/>
	</g>
	<g>
		<g>
			<polygon class="st1" points="577,462.3 576.2,462.6 544.7,475.6 543.6,472.9 574,460.3 574.9,459.9 			"/>
		</g>
	</g>
	<g>
		
			<rect x="575.4" y="428.5" transform="matrix(0.9246 -0.3809 0.3809 0.9246 -120.3585 251.7841)" class="st1" width="0.9" height="3"/>
	</g>
	<g>
		<g>
			<path class="st1" d="M544.7,415.1l-0.8-0.3L510.8,428l-1.1,0.5v2.3l3,1.2l30,12.1l1.5,0.6l1.5-0.6l28.3-11.7l3-1.2v-2.6
				L544.7,415.1z M544.2,441.5l-11.4-4.6h0l-3.8-1.5l-14.2-5.7l29.1-11.6l11.1,4.6l3.7,1.5l13.6,5.6L544.2,441.5z"/>
		</g>
	</g>
	<g>
		
			<rect x="543.9" y="414.9" transform="matrix(0.9194 -0.3933 0.3933 0.9194 -119.929 247.5289)" class="st1" width="0.2" height="3"/>
	</g>
	<g>
		
			<rect x="510.7" y="428.1" transform="matrix(0.9299 -0.3678 0.3678 0.9299 -122.1829 218.0305)" class="st1" width="0.5" height="3"/>
	</g>
	<g>
		
			<rect x="542.3" y="416.3" transform="matrix(0.3934 -0.9194 0.9194 0.3934 -52.9431 752.5889)" class="st1" width="3" height="0.2"/>
	</g>
	<g>
		
			<rect x="574.2" y="429.3" transform="matrix(0.3751 -0.927 0.927 0.3751 -38.4624 802.0945)" class="st1" width="3" height="0.5"/>
	</g>
	<g>
		<g>
			
				<rect x="527.4" y="428.3" transform="matrix(0.8989 -0.4382 0.4382 0.8989 -133.3316 281.8051)" class="st1" width="33" height="3"/>
		</g>
	</g>
	<g>
		<g>
			<polygon class="st1" points="523.6,456.7 515.2,453.2 515.4,449.8 523.8,453.5 			"/>
		</g>
	</g>
	<g>
		<g>
			<polygon class="st1" points="523.6,462.2 515.2,458.7 515.3,455.3 523.7,459 			"/>
		</g>
	</g>
</g>
</svg>
